<?xml version="1.0" encoding="UTF-8"?>
<svg width="512px" height="512px" enable-background="new 0 0 508.52 508.52" version="1.1" viewBox="0 0 508.52 508.52" xml:space="preserve" xmlns="http://www.w3.org/2000/svg" xmlns:cc="http://creativecommons.org/ns#" xmlns:dc="http://purl.org/dc/elements/1.1/" xmlns:rdf="http://www.w3.org/1999/02/22-rdf-syntax-ns#"><metadata><rdf:RDF><cc:Work rdf:about=""><dc:format>image/svg+xml</dc:format><dc:type rdf:resource="http://purl.org/dc/dcmitype/StillImage"/><dc:title/></cc:Work></rdf:RDF></metadata><path d="m444.96 0h-381.39c-17.544 0-31.783 14.239-31.783 31.782v444.96c0 17.544 14.239 31.782 31.782 31.782h381.39c17.544 0 31.782-14.239 31.782-31.782v-444.96c1e-3 -17.543-14.237-31.782-31.781-31.782zm0 476.74h-381.39v-444.96h381.39z" fill="#fff"/><path d="m143.02 222.48h222.48c8.74 0 15.891-7.119 15.891-15.891s-7.151-15.891-15.891-15.891h-222.48c-8.772 0-15.891 7.119-15.891 15.891s7.119 15.891 15.891 15.891z" fill="#fff"/><path d="m143.02 317.82h222.48c8.74 0 15.891-7.151 15.891-15.891s-7.151-15.891-15.891-15.891h-222.48c-8.772 0-15.891 7.151-15.891 15.891s7.119 15.891 15.891 15.891z" fill="#fff"/><path d="m143.02 413.17h222.48c8.74 0 15.891-7.151 15.891-15.891s-7.151-15.891-15.891-15.891h-222.48c-8.772 0-15.891 7.151-15.891 15.891s7.119 15.891 15.891 15.891z" fill="#fff"/><path d="m143.02 127.13h222.48c8.74 0 15.891-7.119 15.891-15.891s-7.151-15.891-15.891-15.891h-222.48c-8.772 0-15.891 7.119-15.891 15.891s7.119 15.891 15.891 15.891z" fill="#fff"/></svg>
