<?xml version="1.0" encoding="UTF-8"?>
<svg enable-background="new 0 0 512 512" version="1.1" viewBox="0 0 512 512" xml:space="preserve" xmlns="http://www.w3.org/2000/svg" xmlns:cc="http://creativecommons.org/ns#" xmlns:dc="http://purl.org/dc/elements/1.1/" xmlns:rdf="http://www.w3.org/1999/02/22-rdf-syntax-ns#"><metadata><rdf:RDF><cc:Work rdf:about=""><dc:format>image/svg+xml</dc:format><dc:type rdf:resource="http://purl.org/dc/dcmitype/StillImage"/><dc:title/></cc:Work></rdf:RDF></metadata><circle cx="256" cy="378.5" r="25" fill="#fff"/><path d="m256 0c-141.48 0-256 114.5-256 256 0 141.48 114.5 256 256 256 141.48 0 256-114.5 256-256 0-141.48-114.5-256-256-256zm0 472c-119.38 0-216-96.607-216-216 0-119.38 96.607-216 216-216 119.38 0 216 96.607 216 216 0 119.38-96.607 216-216 216z" fill="#fff" stroke-width=".1"/><path d="m256 128.5c-44.112 0-80 35.888-80 80 0 11.046 8.954 20 20 20s20-8.954 20-20c0-22.056 17.944-40 40-40s40 17.944 40 40-17.944 40-40 40c-11.046 0-20 8.954-20 20v50c0 11.046 8.954 20 20 20s20-8.954 20-20v-32.531c34.466-8.903 60-40.26 60-77.469 0-44.112-35.888-80-80-80z" fill="#fff"/></svg>
